# xmcd
# 
# Track frame offsets:
#     150
#     10105
#     21582
#     31355
#     42882
#     51602
#     60835
#     70587
#     80577
#     90255
#     99767
#     110402
#     121425
#     131340
#     143247
#     153485
#     164522
#     174695
#     184110
#     194190
#     203792
#     212705
# 
# Disc length: 2966
# 
# Revision: 4
# Processed by: cddbd v1.5.2PL0 Copyright (c) Steve Scherf et al.
# Submitted via: fre:ac v1.0.17
# 
DISCID=330b9416
DTITLE=Eddie Bond - Rockin' Daddy cd 1
DYEAR=0
DGENRE=Rock and Roll
TTITLE0=Double Duty Lovin'
TTITLE1=Talking Off The Wall
TTITLE2=Love Makes A Fool (Everyday)
TTITLE3=Your Eyes
TTITLE4=I Got A Woman
TTITLE5=Rockin' Daddy
TTITLE6=Slip, Slip Slippin' In
TTITLE7=Baby, Baby, Baby (What Am I Gonna Do)
TTITLE8=Flip, Flop Mama
TTITLE9=Boppin' Bonnie
TTITLE10=You're Part Of Me
TTITLE11=King On Your Throne
TTITLE12=They Say We're Too Young
TTITLE13=Backslidin'
TTITLE14=Love, Love, Love
TTITLE15=Lovin' You, Lovin' You
TTITLE16=Hershey Bar
TTITLE17=One Step Close To You
TTITLE18=Show Me (Without Sax)
TTITLE19=Broke My Guitar
TTITLE20=This Old Heart Of Mine
TTITLE21=Show Me (With Sax)
EXTD=
EXTT0=
EXTT1=
EXTT2=
EXTT3=
EXTT4=
EXTT5=
EXTT6=
EXTT7=
EXTT8=
EXTT9=
EXTT10=
EXTT11=
EXTT12=
EXTT13=
EXTT14=
EXTT15=
EXTT16=
EXTT17=
EXTT18=
EXTT19=
EXTT20=
EXTT21=
PLAYORDER=
